<svg xmlns="http://www.w3.org/2000/svg" viewBox="0 0 128 128">
  <linearGradient id="a" x1="64" x2="64" y1="128" y2="0" gradientUnits="userSpaceOnUse">
    <stop offset="0" stop-color="#0d47a1"/>
    <stop offset="1" stop-color="#512bd4"/>
  </linearGradient>
  <circle cx="64" cy="64" r="64" fill="url(#a)"/>
  <g fill="#fff">
    <path d="M22.05 81.93a3.26 3.26 0 0 1-2.39-1 3.34 3.34 0 0 1-1-2.45 3.38 3.38 0 0 1 1-2.47 3.3 3.3 0 0 1 2.39-1 3.35 3.35 0 0 1 2.42 1 3.38 3.38 0 0 1 1 2.47 3.34 3.34 0 0 1-1 2.45 3.39 3.39 0 0 1-2.42 1z"/>
    <path d="M60.88 81.38h-5.71L35.09 53.82a15.7 15.7 0 0 1-1.47-3.2h-.2a41.22 41.22 0 0 1 .27 5.15v25.61h-5.1V46.09h6.07l19.68 27.16a17.69 17.69 0 0 1 1.62 3.34h.14a42 42 0 0 1-.24-5.17V46.09h5.01z"/>
    <path d="M88.85 81.38h-19V46.09h18.27v4.55H75.32v10.6h11.93v4.52H75.32V76.8h13.53z"/>
    <path d="M111.76 50.64H101v30.74h-5.49V50.64H84.7v-4.55h27.05z"/>
  </g>
</svg>